<svg width="200" height="200" xmlns="http://www.w3.org/2000/svg">
 <!-- Created with Method Draw - http://github.com/duopixel/Method-Draw/ -->

 <g>
  <title>background</title>
  <rect x="-1" y="-1" width="202" height="202" id="canvas_background" fill="#ffaaff"/>
  <g id="canvasGrid" display="none">
   <rect id="svg_2" width="100%" height="100%" x="0" y="0" stroke-width="0" fill="url(#gridpattern)"/>
  </g>
 </g>
 <g>
  <title>Layer 1</title>
  <path fill="#8CD79F" stroke="#000" stroke-width="1.5" d="m54.48536,69.96899c-0.45838,0 -0.6943,-0.47462 -0.6943,-1.04359c0,-0.47461 0.11796,-0.93521 0.45879,-0.93521c0.23552,0 0.59063,0.4606 0.70859,0.93521c0.23552,0.69049 0,1.04359 -0.47307,1.04359l-0.00001,0zm78.39323,27.07619c1.04939,0 1.28493,0.12195 0.69432,0.93521c-0.34085,0.56897 -1.04904,1.04358 -1.38985,1.04358c-0.35472,0 -0.70859,-0.47461 -0.70859,-1.04358c0,-0.58295 0.47266,-0.93521 1.40411,-0.93521zm-73.25106,-33.12048c-1.049,-0.23029 -1.16697,-1.39622 0,-1.74847c0.59063,-0.10794 0.93145,0.23071 0.93145,0.93521c0,0.58297 -0.34082,0.92162 -0.93145,0.81326zm-13.07826,36.83374c1.40411,-0.33908 1.40411,-0.58255 0.93145,-1.38223c-0.35348,-0.58255 -0.47144,-1.28706 -0.23592,-1.51733c0.11837,-0.35266 0.70859,0 1.04941,0.69049c0.47266,0.93521 0.82614,1.05756 1.75759,0.47461c0.57756,-0.35184 1.04941,-0.58298 1.04941,-0.23032c0,0.23032 0.3547,0 0.81308,-0.47461c0.70859,-0.6909 0.82655,-2.20866 0.11796,-3.02191c-0.57634,-0.69093 -3.50253,-0.4606 -4.31561,0.35184c-0.47185,0.58337 -0.82655,0.46143 -1.28493,-0.58215c-0.70859,-1.73486 -0.70859,-1.97836 0.93145,-2.08714c1.40371,0 1.40371,0 0.23552,-0.7045c-0.5894,-0.33865 -1.16697,-1.04355 -1.16697,-1.50415c0,-1.16592 1.62698,-1.85684 2.33516,-1.04316c0.23552,0.33823 0.6943,0.6905 1.16697,0.6905c0.93145,0 5.37808,-3.94315 5.37808,-4.7564c0,-0.35265 0.45961,-0.58255 0.93105,-0.35265c0.57797,0.12235 1.62697,-0.2299 2.69026,-0.81327c1.50779,-0.93479 1.50779,-1.04356 0.6943,-2.56091c-0.57634,-1.04315 -1.28493,-1.39622 -2.92455,-1.39622c-1.86249,0 -2.33557,0.23029 -2.91191,1.62653c-0.23674,0.93521 -0.94532,1.62611 -1.40411,1.62611c-0.81308,0 -1.049,-1.04315 -0.23552,-1.62611c0.35348,-0.23031 0.58941,-1.04357 0.58941,-1.85641c0,-1.27428 -0.23593,-1.50417 -1.7576,-1.16552c-1.52208,0.23031 -1.52208,0.12154 -1.16697,-1.62653c0.23552,-1.04354 0.57634,-1.97836 0.81308,-2.08713c0.23592,-0.12152 0.47185,-1.1651 0.47185,-2.20865c0,-2.08714 0.69553,-2.43896 1.98168,-0.93521c0.58899,0.81326 0.9441,0.93521 1.16696,0.23029c0.23552,-0.46017 1.06207,-0.56894 2.34781,-0.33865c1.74493,0.4606 1.8629,0.33865 1.62697,-1.04355c-0.11755,-0.81327 -0.23674,-1.74809 -0.35471,-1.97836c0,-0.35226 -0.57633,-0.81326 -1.27227,-1.16553c-1.40371,-0.58255 -1.75718,-1.97836 -0.47266,-1.97836c0.35511,0 0.69593,-0.2303 0.69593,-0.69131c0,-0.35223 0.70817,-0.58255 1.63963,-0.47462c1.28615,0.12238 1.98045,-0.33906 3.73804,-2.77761c1.28615,-1.74847 2.21761,-2.68369 2.33558,-2.20908c0.11755,0.58214 0.70818,0.9212 1.28574,0.9212c0.93146,0 1.04941,-0.33907 0.7086,-1.85641c-0.11919,-1.04356 -0.7086,-2.31702 -1.0633,-2.90039c-1.049,-1.28746 -1.049,-2.79163 0,-2.33102c0.82655,0.46143 3.39722,-0.81244 3.39722,-1.6257c0,-0.35266 0.34205,-0.58296 0.81348,-0.58296c0.47308,0 0.69595,0.7045 0.69595,1.62653c0,1.1651 0.2355,1.6257 0.82614,1.28705c0.45882,-0.24348 0.81353,-0.93521 0.81353,-1.3954c0,-1.39622 3.73805,-3.8356 4.66908,-3.14429c0.35511,0.23071 0.70859,0 0.82777,-0.81285c0.34084,-1.62653 2.4519,-2.90039 3.38293,-2.08713c0.47308,0.33865 0.93145,0.2303 1.05064,-0.12154c0.23592,-0.46143 1.16737,-0.81367 2.21638,-0.92203c1.049,-0.12195 2.45313,-0.58296 3.04374,-1.05716c2.21597,-1.50417 4.43357,-1.39581 5.36502,0.23071c0.59062,1.1651 0.82614,1.1651 0.82614,0.35225c0,-1.04398 0.46001,-1.16551 3.2666,-0.81367c4.44663,0.46143 5.14216,0.46143 6.7818,-0.12154c1.0494,-0.33865 1.40411,-0.2303 1.40411,0.7045c0,0.58296 0.34081,1.04356 0.81348,1.04356c0.35347,0 0.69431,-0.33865 0.69431,-0.69131c0,-0.93521 1.87672,-1.3954 3.51635,-0.93521c1.27187,0.46143 1.39024,0.58296 1.049,3.71365c-0.11755,1.87001 0,3.14388 0.22286,3.14388c0.23592,0 0.47305,-0.81326 0.47305,-1.97836c0,-1.96559 1.28455,-2.77803 1.75758,-1.16551c0.11799,0.58255 0.4584,0.35184 0.69433,-0.56895c0.59061,-2.43979 1.87679,-1.16634 1.52168,1.50375c-0.35349,2.20908 -0.35349,2.20908 0.69552,1.39581c0.59061,-0.35184 1.04939,-1.27386 1.04939,-1.856c0,-0.58296 0.35472,-1.27469 0.82614,-1.51817c0.93145,-0.46019 1.98168,1.28705 1.63963,2.56133c-0.11755,0.58255 -0.11755,1.04398 0.22287,1.04398c0.23714,0 0.47307,-0.33907 0.47307,-0.58296c0,-0.33907 0.57757,-0.46101 1.28616,-0.2303c1.52044,0.35184 1.74331,1.28664 0.45837,1.856c-0.34082,0.2439 -0.69553,0.81285 -0.69553,1.28746c0,0.81326 0.23714,0.81326 1.52208,0c2.09801,-1.3954 3.0295,-1.28746 3.38461,0.2303c0.23552,0.81326 0.69553,1.16592 1.16655,0.81326c0.47269,-0.12154 1.52206,0.35266 2.33559,1.1651c0.70857,0.69173 1.75757,1.27386 2.23024,1.27386c0.69554,0 0.69554,0.58337 0.4588,2.20949c-0.23593,1.74847 -0.23593,1.97878 0.47266,1.27386c0.93146,-1.15192 1.28494,-1.04356 1.62698,0.58255c0.11754,0.81285 0.9437,1.39581 1.87514,1.74806c1.04942,0.23113 1.62698,0.81327 1.62698,1.50458c0,0.7049 0.35347,1.51734 0.70859,1.97878c0.93144,0.81326 0.69431,3.25222 -0.35512,4.06548c-0.35347,0.24349 -0.81306,0.12196 -0.93103,-0.23029c-0.23552,-0.35266 -1.04942,-0.35266 -2.57109,0c-2.45313,0.81284 -2.91191,1.04355 -2.33557,2.10031c0.3551,0.69089 4.43521,0.46059 6.66423,-0.35266c0.69553,-0.35226 0.93106,0 0.93106,1.62653c0,1.1651 -0.23553,2.08714 -0.58899,2.08714c-0.23715,0 -0.46002,0.35184 -0.46002,0.93478c0,1.39623 0.57797,1.27386 2.09964,-0.35223c0.81227,-0.93481 1.28494,-1.16553 1.8625,-0.58255c0.58945,0.58255 0.70862,0.58255 0.70862,-0.35226c0,-0.56976 -0.2372,-1.04355 -0.59067,-1.04355c-0.22287,0 -0.46004,-0.46103 -0.46004,-0.92163c0,-0.58295 0.34207,-1.04355 0.81351,-1.04355c0.35512,0 0.82616,0.23029 0.82616,0.56894c0,0.35309 0.46002,0.81326 1.05063,0.93521c0.81227,0.35266 1.04901,0.81326 0.93147,2.20868c-0.23715,2.67007 0.23592,3.48334 1.98044,3.02274c0.82614,-0.23112 1.28494,0 0.93144,0.46059c-0.1053,0.23032 0,0.81326 0.23553,1.05676c0.94533,0.69172 0.59061,2.31742 -0.45839,2.31742c-1.28656,0 -1.64005,0.58297 -0.94452,1.62612c0.47185,0.58295 0.82657,0.6909 1.28493,0.23071c1.06331,-1.16552 1.28656,-0.23071 1.40411,4.41816c0,2.3306 0.23593,4.18701 0.47148,4.18701c0.57753,0 0.35466,2.56174 -0.47148,3.60532c-0.45959,0.58212 -0.45959,1.15108 -0.11755,1.62569c0.82614,1.04356 0,4.06549 -1.05063,4.06549c-0.93146,0 -2.68904,2.20864 -2.68904,3.25262c0,1.2743 -1.5078,0 -1.86246,-1.39581c-0.35393,-1.27386 -0.35393,-1.27386 -0.59067,-0.35266c-0.22287,1.05759 1.05063,4.30981 2.1127,5.23141c0.69553,0.70493 -0.59103,1.87003 -1.52203,1.39581c-0.47311,-0.23028 -0.69597,-0.9212 -0.69597,-1.6257c0,-1.97874 -2.92416,-6.96626 -5.14178,-8.83587c-1.18001,-0.92203 -2.229,-1.96561 -2.229,-2.31784c0,-0.7045 -3.73969,-2.89999 -5.83769,-3.60489c-1.1682,-0.35266 -1.52208,-0.22989 -1.52208,0.7049c0,0.69093 -0.22284,0.92081 -0.69553,0.69093c-1.04939,-0.46104 -1.52206,0.58294 -0.59059,1.62608c1.28612,1.27386 1.06328,2.79205 -0.34042,2.20908c-0.94451,-0.35223 -1.06207,-0.23029 -0.7086,1.74808c0.11755,1.15231 0.35471,2.67007 0.35471,3.36099c0,0.70449 0.23553,1.16549 0.47144,1.16549c0.34206,0 0.45999,-0.23071 0.22287,-0.58255c-0.11755,-0.35266 0.11919,-0.69131 0.59059,-0.69131c0.35474,0 0.69553,0.46103 0.69553,0.92163c0,0.47461 -0.45998,0.9352 -1.28612,0.81326c-0.69431,0 -1.28493,-0.33865 -1.28493,-0.56898c0,-1.05755 -3.1487,-8.25375 -4.08015,-9.31048c-1.049,-1.15234 -0.35349,-1.50418 -8.64426,3.95712c-1.28493,0.81326 -2.68904,2.56174 -3.39763,3.83521c-0.57758,1.27386 -1.50861,2.5613 -1.98045,2.79202c-0.47266,0.23032 -2.21716,2.08713 -3.73921,4.06548c-6.54588,8.71315 -5.48299,9.75713 -5.02421,27.55088c1.98209,13.48392 1.98209,13.48392 1.98209,13.48392c-4.67113,0 -4.67113,0 -4.67113,0c-3.8556,0 -3.8556,0 -3.8556,0c0.35348,-12.44121 0.35348,-12.44121 0.35348,-12.44121c0.23592,-1.04271 0.35511,-3.14349 0.47266,-4.30896c0.11797,-0.69122 -3.27926,-3.71327 -3.16171,-4.40405c0,-0.58307 3.51517,1.04346 3.51517,0.46008c0.57797,-8.48283 0,-15.23201 -1.52167,-18.82328c-0.35348,-2.20908 -3.27925,-9.30968 -3.73804,-9.30968c-0.11797,0 -0.94411,-0.69171 -1.75759,-1.50459c-1.40411,-1.51733 -1.98045,-1.6261 -9.81287,-2.08713c-8.4088,-0.47418 -8.4088,-0.47418 -8.4088,-0.47418c-1.99352,1.62611 -1.99352,1.62611 -1.99352,1.62611c-1.16655,1.05716 -2.33516,1.74808 -2.67596,1.74808c-0.70819,0 -3.63438,2.43979 -4.90625,3.8356c-0.11796,0 -0.23592,-0.12196 -0.23592,-0.23071c-0.11755,0 -0.11755,0 -0.11755,-0.12156c-0.11796,-0.33865 -0.23715,-0.69171 -0.47266,-1.04354c0.70818,-0.58298 1.28574,-0.93564 1.52167,-0.81326c0.35348,0.23029 0.69553,0 0.69553,-0.58298c0,-0.58212 -0.69553,-0.81326 -2.55802,-0.58212c-2.23025,0.35183 -2.80822,0.47336 -3.1617,1.85598c-0.57757,0.7045 -0.69553,1.74847 -0.35348,2.56135c-0.11919,1.04398 -0.11919,1.74847 0,1.74847c0.11796,0 0.23552,-0.23032 0.58899,-0.47461c0,0.12195 0.11796,0.24429 0.23715,0.35305c-1.16819,0.35184 -1.75882,1.39542 -1.63963,2.43858c-0.59063,0.47461 -1.16819,0.70489 -1.87677,1.05716c0,0 0,-0.12195 -0.1049,-0.12195c0.46001,-1.04359 0.69552,-2.20908 0.81348,-3.95673c0.23674,-1.96561 0.11755,-3.25266 -0.23592,-3.25266c-0.23551,0 -0.47266,0.47461 -0.47266,1.16553c0.11796,0.58294 -0.1049,1.1651 -0.57634,1.27343c-0.35511,0.12195 -0.59063,-0.10833 -0.59063,-0.69049c0,-1.39664 -0.45879,-1.39664 -1.50901,-0.12277c-0.47144,0.47461 -1.40289,1.04398 -2.21638,1.28787c-1.06329,0.33909 -1.40411,0.10838 -1.87678,-1.1651c-0.35348,-1.04354 -0.5894,-2.2099 -0.35348,-2.67007c0.11796,-0.58298 0.11796,-1.05676 -0.34082,-1.05676c-1.28616,0 -0.3547,-1.85724 1.16697,-2.20947l-0.00001,-0.00006zm10.0484,-26.72397c-0.70818,-0.12195 -1.28575,-0.4606 -1.52167,-0.93522c-0.11755,-0.69131 -0.23551,-0.69131 -0.23551,0c0,0.47462 -0.47308,0.81327 -0.93145,0.93522c-0.82614,0 -0.82614,0.12195 0.11796,0.58295c0.57634,0.23032 1.16697,0.58215 1.28493,0.58215c0.1049,0 0.69553,-0.35184 1.28575,-0.58215c1.04941,-0.58295 1.04941,-0.58295 0,-0.58295l-0.00001,0zm92.63887,18.71494c0.22285,0.23029 0.45839,-0.12196 0.45839,-0.70451c0,-0.46143 -0.23552,-0.92162 -0.45839,-0.92162c-0.35512,0 -0.59059,0.23032 -0.59059,0.56897c0,0.35265 0.23547,0.82727 0.59059,1.05716zm-0.82654,1.04398c-0.11798,-0.35309 -0.69553,-0.81369 -1.16817,-0.81369c-0.34087,0 -0.5768,0.4606 -0.34087,0.81369c0.10532,0.35184 0.57797,0.58212 1.04901,0.58212c0.46001,0 0.57796,-0.23029 0.46001,-0.58212l0.00002,0zm-1.04898,5.23059c0.35345,0 0.82614,-0.12195 0.82614,-0.23032c0,-0.24429 -0.47269,-0.47461 -0.82614,-0.70451c-0.46005,-0.23029 -0.81352,-0.10876 -0.81352,0.2299c0,0.35309 0.35347,0.70493 0.81352,0.70493zm0.931,-11.04456c0.47185,-0.23032 0.70859,-0.58298 0.5894,-0.92163c-0.35347,-0.82684 -2.33392,-0.82684 -2.33392,0c0,0.92163 0.69435,1.27347 1.74452,0.92163zm-6.41525,-8.71436c-0.59064,0.35307 -0.94411,1.04398 -0.82654,1.39622c0.59102,0.9212 1.28656,0.69091 1.87552,-0.81326c0.57797,-1.39622 0.34207,-1.62611 -1.04898,-0.58295l0,-0.00001zm-2.23026,17.90208c3.04375,3.13071 3.1613,3.25224 3.1613,2.20908c0,-0.58255 -0.23552,-1.05716 -0.59023,-1.05716c-0.34082,0 -0.93146,-0.58295 -1.28494,-1.27386c-0.34081,-0.69131 -1.049,-1.39621 -1.62697,-1.39621c-1.06206,0 -1.06206,0.12277 0.34084,1.51817l0,-0.00002zm-2.45189,-5.47488c0.70695,0 1.049,-0.23032 0.5894,-0.33865c-0.35349,-0.23032 -0.93146,-0.23032 -1.28493,0c-0.35512,0.10835 0,0.33865 0.69553,0.33865zm-3.38458,-15.80136c0.35349,0.35223 1.4025,0.81284 2.33394,1.04398c1.64006,0.35184 1.7576,0.35184 0.82614,-0.58298c-1.06168,-1.15231 -3.97354,-1.50415 -3.16008,-0.461zm-7.12383,-19.2839c-0.35389,0.33865 -0.47144,1.04356 -0.35389,1.50375c0.23592,0.93521 0.93146,0.12195 0.93146,-1.27386c0,-0.7045 -0.11755,-0.81326 -0.57757,-0.22989zm3.50252,25.09786c0.93103,0.58255 1.28575,0.58255 1.75841,-0.23071c0.93146,-1.27386 0.34123,-1.85601 -1.40372,-1.04357c-1.40411,0.56979 -1.40411,0.56979 -0.35469,1.27428zm-2.33434,-5.81396c1.75761,-1.27347 1.75761,-1.27347 0.3539,-1.27347c-0.94451,0 -1.64005,0.46021 -1.99352,1.27347c-0.22286,0.81284 -0.46,1.27386 -0.34205,1.27386c0,0 0.93145,-0.69131 1.98167,-1.27386zm-2.57112,18.83728c0.81232,1.27386 2.21642,1.27386 1.75764,-0.12195c-0.11755,-0.461 -0.23674,-1.04354 -0.23674,-1.16592c0,-0.10834 -0.47185,-0.10834 -1.0494,0.12238c-0.94416,0.23071 -0.94416,0.58254 -0.4715,1.16549zm-3.62131,-4.77039c0.93145,1.27386 1.40411,1.39581 2.45312,0.4606c0.69553,-0.58215 0.69553,-0.58215 0,-0.6905c-0.35348,0 -1.28493,-0.12276 -2.09842,-0.35308c-1.16819,-0.4606 -1.16819,-0.4606 -0.3547,0.58298zm-0.11797,-12.67107c0.59063,0 1.28616,-1.85684 0.93145,-2.43896c-0.45879,-0.58298 -1.40289,0.35184 -1.40289,1.39539c0,0.58298 0.23592,1.04358 0.47144,1.04358l0,-0.00001zm-5.71851,7.90067c-0.70859,0.47461 -0.5906,0.58337 0.34085,0.58337c0.59023,0 1.28492,-0.23112 1.52166,-0.58337c0.35349,-0.92162 -0.81351,-0.92162 -1.86251,0zm0.118,10.23172c0.10487,0.12234 0.45834,-0.12196 0.81308,-0.69093c0.35386,-0.47461 1.40285,-1.05756 2.21635,-1.28787c1.04901,-0.35184 1.52208,-0.92078 1.52208,-1.74805c0,-1.96436 -1.63963,-1.38263 -3.38457,1.16592c-0.7086,1.28705 -1.28493,2.3306 -1.16694,2.56092l0,0.00001zm-1.28617,-5.35297c1.049,-1.27345 1.049,-1.50459 0.22285,-1.85641c-0.93145,-0.46059 -1.62572,0.58298 -1.62572,2.43896c-0.11919,1.39624 -0.11919,1.39624 1.40287,-0.58255zm-1.87553,-13.71423c0.11755,0.93481 0.35348,0.81287 1.049,-0.92203c0.82653,-1.85599 0.82653,-2.10031 0.11794,-2.10031c-0.45836,0 -0.93145,0.35226 -1.04939,0.93521c-0.23553,0.4606 -0.23553,1.51776 -0.11755,2.08713zm-0.57797,-9.52679c0,0.47378 0.22286,1.62569 0.45999,2.43896c0.35349,1.62653 0.35349,1.62653 0.70858,0.23032c0.4584,-1.39542 0,-3.48254 -0.70858,-3.48254c-0.34206,0 -0.45999,0.35184 -0.45999,0.81326zm-8.1842,3.83477c-0.57797,0.81326 -0.57797,1.62613 -0.11919,4.06549c0.23714,1.74809 0.82735,3.49654 1.16819,3.8352c0.59061,0.58295 0.7086,0 0.82654,-3.60448c0,-4.40414 -0.59103,-5.80035 -1.87553,-4.2962l0,-0.00001zm1.049,12.31884c0.11795,0.23029 0.35349,-0.23031 0.2355,-0.92204c0,-0.7045 -0.11755,-0.81286 -0.35349,-0.35184c-0.10489,0.4606 -0.10489,1.04356 0.11797,1.27386l0.00001,0.00002zm4.21066,-10.92262c-0.11797,0.2299 -0.11797,1.85642 0.23589,3.60407c0.35472,3.02274 0.46003,3.14468 0.57758,0.93561c0.11794,-3.60489 -0.11755,-5.35336 -0.81348,-4.53968l0.00001,0zm-3.97516,32.78185c0.70858,-1.39624 1.87595,-3.72726 2.689,-5.12309c0.93145,-1.50415 1.52206,-3.48251 1.75759,-5.4613c0.34205,-3.13028 0.34205,-3.13028 0.34205,-3.13028c-1.40411,1.73489 -1.40411,1.73489 -1.40411,1.73489c-0.69553,0.93521 -1.16695,1.97836 -1.16695,2.3306c0,0.92163 -2.21757,6.7356 -2.91309,7.77914c-0.35349,0.58215 -0.9437,1.87003 -1.049,2.79162c-0.59061,2.6693 0.46002,2.20869 1.74453,-0.92159l-0.00002,0zm-8.2908,11.96614c0.35511,2.31746 0.35511,2.31746 1.52209,-2.67006c0.69553,-2.6833 1.74492,-6.97906 2.45311,-9.64919c0.93145,-3.37417 1.28614,-6.16579 1.28614,-10.10934c0,-5.12222 -0.11919,-5.23099 -1.05064,-4.64762c-2.11107,1.50376 -3.27926,5.69121 -3.75068,13.82218c-0.22286,4.18783 -0.46003,8.37527 -0.69553,9.29729c-0.11798,0.93482 0,2.6833 0.2355,3.95672l0.00001,0.00002zm0.23717,-29.74629c0.45836,1.15192 0.93145,2.08673 0.93145,2.08673c0.11794,0 0.69428,-0.7045 1.16695,-1.62653c0.59022,-0.81244 1.52167,-1.74725 1.87514,-2.08631c1.39147,-1.05716 1.74495,-4.30981 0.57797,-6.51846c-0.93145,-1.97836 -3.50212,-4.18786 -3.97517,-3.48336c-0.23553,0.23032 -0.57634,2.43979 -0.81351,5.0007c-0.47103,3.8352 -0.47103,5.00111 0.23717,6.62723zm-0.7082,-26.61644c0.23553,0.23112 0.47103,0.10876 0.47103,-0.24348c0,-0.46101 -0.2355,-0.92162 -0.47103,-1.15192c-0.35511,-0.24431 -0.57797,-0.12195 -0.57797,0.33865c0,0.35225 0.22286,0.81326 0.57797,1.05675zm-37.84579,31.2509c1.62657,0.12234 1.62657,0.12234 1.62657,0.12234c1.63963,0 3.27966,-1.50497 3.27966,-2.79163c0,-0.81326 -0.11796,-0.81326 -4.90623,2.66928l0,0.00001zm0.69553,-3.25223c0,0.35265 0.23552,0.7045 0.59022,0.7045c0.57675,0 2.21638,-2.08673 1.8629,-2.43896c-0.35511,-0.47461 -2.45312,1.04356 -2.45312,1.73447l0,-0.00001zm1.28574,-8.00946c1.758,2.31784 2.57149,2.54815 3.50253,1.04356c0.94411,-1.39581 0.11797,-2.33062 -2.69027,-2.66927c-2.33393,-0.35307 -2.33393,-0.35307 -0.81226,1.6257zm-1.28574,-6.51804c0,0.2439 0.82614,0.81284 1.75759,1.28705c4.31561,2.20866 5.14217,2.20866 5.0242,0.10876c0,-1.27386 -1.75759,-4.06593 -2.45354,-4.06593c-0.82613,0 -4.32825,2.20908 -4.32825,2.6701l0,0.00001zm6.31034,16.50586c1.28495,0 1.4025,-0.35226 0.35349,-0.9212c-0.47268,-0.12238 -0.93144,0 -1.049,0.33905c-0.23716,0.35184 0.11755,0.58215 0.6955,0.58215l0.00001,0zm0.93147,-27.30695c-0.8139,-0.58296 -1.86414,-0.81326 -2.33558,-0.58296c-0.81349,0.46144 -0.69553,0.58296 0.47144,0.9348c0.57757,0.23113 1.75883,0.46143 2.33517,0.56979c0.69552,0 0.69552,-0.23071 -0.47103,-0.92162l0,-0.00001zm-0.10531,4.18744c0.69429,0 0.81348,-0.12195 0.34081,-0.47378c-0.34081,-0.10835 -0.81348,-0.10835 -1.04941,0.12154c-0.11757,0.23029 0.23592,0.461 0.7086,0.35223l0,0.00002zm0.69429,2.6701c-1.63964,0 -1.63964,0.10833 -0.69429,1.04314c1.16695,1.04398 1.50779,1.1655 1.98045,0.46101c0.81348,-0.9212 0.23592,-1.50414 -1.28616,-1.50414l0,-0.00002zm2.33556,-13.13211c-0.47306,-0.58255 -0.59061,0.46101 -0.35387,1.73488c0.11795,0.81285 0.58939,1.51776 0.82654,1.51776c0.45839,0 0.11797,-2.56174 -0.47266,-3.25264l-0.00001,0zm3.7381,15.34076c-0.23592,0.10837 0.35471,0.81326 1.05022,1.39624c0.70859,0.58255 1.28492,0.81244 1.28492,0.46059c0,-0.81326 -1.98045,-2.33144 -2.33514,-1.85683zm-2.9246,0.81326c-1.04942,0.81326 -0.45879,2.89999 1.06207,3.25224c0.81312,0.23032 2.09927,1.1651 2.91276,2.08713c0.70859,0.93481 1.28492,1.28787 1.28492,0.93481c0,-1.1651 -4.66953,-6.74877 -5.25974,-6.27415l-0.00001,-0.00002zm4.78831,9.64916c-0.69553,-1.87084 -1.50902,-2.79205 -3.03069,-3.375c-1.16741,-0.4602 -2.3356,-0.7045 -2.68908,-0.58215c-0.35511,0.12196 1.049,1.62612 3.04379,3.37377c3.73805,3.02275 3.73805,3.02275 2.67598,0.58337l0,0.00001zm6.20422,-17.90209c-0.23592,0 -0.47308,0.4606 -0.47308,0.9212c0,0.58298 0.23715,0.93481 0.47308,0.93481c0.34082,0 0.57756,-0.35183 0.57756,-0.93481c0,-0.4606 -0.23674,-0.9212 -0.57756,-0.9212zm-1.06207,9.52679c0,0.81287 1.9931,0.23032 2.807,-0.81326c1.16656,-1.74847 1.049,-2.20908 -0.47308,-2.20908c-1.049,0 -2.33392,1.62695 -2.33392,3.02235zm3.39722,-25.09826c-0.35471,1.50417 -0.59023,2.77803 -0.47266,2.90039c0.35511,0.4606 1.28616,-3.02193 1.28616,-4.41815c0,-0.58255 -0.35471,0.12236 -0.81348,1.51776l-0.00001,0zm6.07361,23.47174c-0.59063,0 -1.04942,0.23114 -1.04942,0.69131c0,0.35226 0.34084,0.58298 0.69431,0.58298c0.47266,0 0.93145,-0.23071 1.05064,-0.58298c0.23592,-0.46017 -0.11919,-0.69131 -0.69553,-0.69131zm-1.40411,21.84564c0.69553,2.10114 1.74453,4.06549 2.33556,4.5401c0.59022,0.35223 1.75759,1.97836 2.45312,3.60529c0.69553,1.62569 1.40411,2.89956 1.52168,2.89956c0.57634,0 -0.59062,-10.69228 -1.40411,-13.94534c-0.70818,-2.7908 -0.93145,-5.35254 -0.81308,-9.41804c0.1049,-3.02193 0,-5.692 -0.23592,-5.92233c-0.11797,-0.23029 -0.93145,-0.23029 -1.63963,0c-1.28615,0.4606 -1.40411,0.81326 -1.40411,3.375c0,1.96436 -0.23551,3.02193 -0.81348,3.48254c-1.63963,1.04314 -1.52167,6.96545 0,11.38322l-0.00002,0zm-3.38457,-15.57066c-0.23592,-1.74847 -0.47144,-1.97836 -1.75759,-1.97836c-1.52167,0 -1.52167,0.12152 -1.40411,2.56049c0,1.505 0.23714,3.25304 0.35511,4.0659c0.11755,0.81326 0.57756,1.62611 1.049,1.74806c0.93145,0.58296 1.98045,-3.48253 1.75759,-6.3961zm-1.75759,11.73544c-1.049,-1.39539 -1.75759,-2.89957 -1.86249,-3.25223c0,-0.4606 -0.59063,-1.62569 -1.28493,-2.66968c-0.7086,-1.04315 -1.52208,-2.33102 -1.87679,-2.79163c-1.16697,-1.62611 -0.93143,-0.23029 0.35471,3.37418c0.81348,2.43978 2.21638,4.64846 3.856,6.50527c3.03109,3.14346 3.38457,2.56091 0.81349,-1.16592l0.00001,0.00001zm-1.86249,5.7052c1.27186,0 1.16696,-0.12151 -0.59063,-1.97836c-1.16696,-1.1651 -1.98045,-2.43896 -1.98045,-3.02191c0,-0.46103 -1.52206,-2.10031 -3.27924,-3.60449c-1.74493,-1.51816 -3.38457,-3.02234 -3.62049,-3.48335c-0.23674,-0.58215 -0.35471,-0.58215 -0.35471,0.10876c0,0.70491 -0.57679,0.81285 -2.45357,0.46018c-1.28493,-0.23029 -2.33392,-0.23029 -2.33392,-0.10794c0,0.23072 0.47143,1.62613 0.94408,3.02234c0.81349,2.31702 1.16697,2.79163 3.73846,3.71283c1.62661,0.58298 4.19768,1.97836 5.83732,3.02194c1.52206,1.05756 3.38456,1.87 4.09315,1.87l-0.00001,0zm-18.23434,3.94397c0.47266,0 1.16819,-0.23032 1.63963,-0.58298c0.81348,-0.81284 0.11919,-0.81284 -1.40289,0c-0.69553,0.35266 -0.81308,0.46103 -0.23674,0.58298zm-1.28493,-2.90038c1.16697,-0.47379 4.90625,-0.93521 8.30387,-0.93521c6.41405,-0.10838 7.70022,-0.46021 5.12914,-1.1651c-0.81348,-0.23032 -2.67598,-0.81326 -4.1981,-1.39542c-2.68861,-1.04355 -8.1859,-0.69131 -8.76224,0.47379c-0.11919,0.23071 -0.70859,0.35266 -1.28615,0.23071c-1.16697,-0.35265 -2.33516,0.58255 -2.68904,2.43896c-0.47267,1.50418 0.35389,1.62695 3.50253,0.35226l-0.00001,0.00002zm-9.34021,2.67007c0.23593,0.93481 1.40411,1.04315 2.33557,0.23032c0.57634,-0.46059 0.57634,-0.69092 0,-1.39581c-0.47308,-0.69131 -0.81349,-0.69131 -1.52208,-0.10837c-0.47266,0.33865 -0.81349,0.9212 -0.81349,1.27386zm-3.73804,8.13141c0.45879,0 0.6943,0.35184 0.45879,1.04315c-0.10531,0.47461 -0.45879,0.93521 -0.69593,0.93521c-0.35348,0 -0.57634,-0.4606 -0.57634,-0.93521c0,-0.56898 0.34082,-1.04315 0.81349,-1.04315l-0.00001,0z" id="svg_1"/>
 </g>
</svg>